<svg width="98" height="98" viewBox="0 0 98 98" fill="none" xmlns="http://www.w3.org/2000/svg">
<path fill-rule="evenodd" clip-rule="evenodd" d="M49 0H49C75.95 0 98 22.05 98 49V49C98 75.95 75.95 98 49 98H49C22.05 98 0 75.95 0 49V49C0 22.05 22.05 0 49 0ZM49 4.70396H49C73.3628 4.70396 93.296 24.6371 93.296 48.9999V49C93.296 73.3627 73.3628 93.2959 49 93.2959H49C24.6372 93.2959 4.70403 73.3627 4.70403 49V48.9999C4.70403 24.6371 24.6372 4.70396 49 4.70396V4.70396Z" fill="black"/>
<path fill-rule="evenodd" clip-rule="evenodd" d="M67.2516 64.1766V70.0781C67.2516 72.0107 66.4819 73.8537 65.1164 75.2192C63.7509 76.5848 61.9077 77.3545 59.9752 77.3545H42.67C40.7375 77.3545 38.8944 76.5848 37.5289 75.2193C36.1633 73.8537 35.3936 72.0107 35.3936 70.0781V64.6479C32.4892 62.8093 29.982 60.4094 28.0462 57.5564C26.9644 55.962 26.6026 55.5643 25.9815 53.8385C25.7764 53.3586 25.6029 52.8853 25.4771 52.4369C24.02 48.3488 23.781 43.7843 26.958 40.4197C28.4258 38.8652 30.3946 37.8678 32.4586 37.3434C32.4766 36.0151 32.5398 34.7802 32.6464 33.7029C32.9443 30.6919 34.4551 28.1748 36.6006 26.1087C39.423 23.3908 43.2559 21.8885 47.0572 21.1788C50.9213 20.4574 55.0858 20.4831 58.9541 21.15C62.7412 21.803 67.3379 23.2045 70.064 26.0822C70.1585 26.1607 70.2477 26.2442 70.3315 26.3321C72.9541 29.0246 73.4761 37.6264 73.5448 41.0585C73.6859 48.1095 72.5561 56.2746 68.6477 62.2767C68.2186 62.9357 67.7534 63.5712 67.2516 64.1766V64.1766ZM27.6566 53.6697L28.2272 54.7174C28.5853 55.3748 28.9775 56.0198 29.3978 56.6393C31.2047 59.3023 33.5498 61.5476 36.2672 63.2678L37.0269 63.7487V70.0781C37.0269 71.5771 37.6245 73.0049 38.6838 74.0643C39.7431 75.1236 41.171 75.7211 42.67 75.7211H59.9752C61.4743 75.7211 62.9022 75.1236 63.9615 74.0642C65.0208 73.0049 65.6183 71.5771 65.6183 70.0781V63.5876L65.9942 63.1342C66.456 62.577 66.8841 61.9919 67.279 61.3854C71.0003 55.6707 72.0459 47.7898 71.9118 41.0911C71.8504 38.0209 71.3051 29.6966 69.1553 27.4653C69.0924 27.4 69.0141 27.3365 68.9472 27.2738C66.3204 24.8121 62.1709 23.362 58.6766 22.7595C54.9897 22.1239 51.0383 22.0971 47.357 22.7843C43.8787 23.4337 40.3183 24.7961 37.7336 27.2852C35.87 29.0797 34.5305 31.249 34.2718 33.8637C34.1569 35.0247 34.1076 36.1991 34.0918 37.3654L34.0749 38.6179L32.8609 38.9263C31.1059 39.3723 29.4001 40.2124 28.1456 41.5409C25.4171 44.4306 25.9251 48.4565 27.0336 51.9418C27.1773 52.3937 27.3576 52.8386 27.5183 53.2852L27.6566 53.6696L27.6566 53.6697Z" fill="black"/>
<path fill-rule="evenodd" clip-rule="evenodd" d="M43.732 32.5005C43.7526 32.4812 50.8212 25.667 61.5481 32.4025C61.9377 32.6479 62.0547 33.1627 61.8094 33.5524C61.5641 33.942 61.0492 34.059 60.6596 33.8137C51.037 27.7716 44.8933 33.6989 44.8753 33.7157C44.5398 34.0314 44.0118 34.0153 43.6961 33.6798C43.3804 33.3443 43.3965 32.8162 43.732 32.5005H43.732ZM35.8973 34.0245C35.7743 39.5264 36.0868 48.6586 37.7364 52.9134C37.9024 53.3427 37.6889 53.8254 37.2596 53.9914C36.8302 54.1573 36.3476 53.9438 36.1816 53.5145C34.9146 50.2468 34.4513 44.6711 34.2911 40.2992C31.8856 40.6763 25.3814 42.5254 28.5735 51.394L28.5767 51.3928C28.5895 51.4284 28.5997 51.4643 28.6075 51.5002C28.8317 52.2001 30.9853 58.4073 38.0397 62.428H64.1654H64.4503C64.9812 61.8222 65.4669 61.1752 65.9104 60.4942C69.394 55.1443 70.4084 47.5934 70.2789 41.1238C70.151 34.7349 68.9791 29.517 67.9797 28.5997C67.9725 28.5931 67.9806 28.5974 67.9759 28.5944L67.9735 28.596C67.9028 28.5499 67.8413 28.4948 67.7897 28.4334C65.8881 26.4885 62.4038 25.0596 58.3992 24.3692C54.9563 23.7756 51.1566 23.7367 47.6568 24.39C44.2089 25.0338 41.0624 26.3473 38.8666 28.4618C37.3605 29.9122 36.2989 31.7515 35.8973 34.0246L35.8973 34.0245Z" fill="black"/>
<path fill-rule="evenodd" clip-rule="evenodd" d="M42.6694 74.0879H59.9746C61.0764 74.0879 62.0788 73.6366 62.8059 72.9095C63.533 72.1823 63.9844 71.18 63.9844 70.0782V64.1005H38.6595V70.0782C38.6595 71.18 39.1109 72.1823 39.8381 72.9095C40.5652 73.6366 41.5675 74.0879 42.6693 74.0879H42.6694Z" fill="black"/>
</svg>
