<svg width="14" height="14" viewBox="0 0 14 14" fill="none" xmlns="http://www.w3.org/2000/svg">
<rect width="14" height="14" fill="white"/>
<path fill-rule="evenodd" clip-rule="evenodd" d="M7 2H7.00001C9.75001 2 12 4.25 12 7V7.00001C12 9.75001 9.75001 12 7.00001 12H7C4.25 12 2 9.75001 2 7.00001V7C2 4.25 4.25 2 7 2ZM7 2.48H7.00001C9.48601 2.48 11.52 4.514 11.52 7V7C11.52 9.486 9.48601 11.52 7.00001 11.52H7C4.514 11.52 2.48 9.486 2.48 7V7C2.48 4.514 4.514 2.48 7 2.48V2.48Z" fill="black"/>
<path fill-rule="evenodd" clip-rule="evenodd" d="M8.86248 8.54863V9.15083C8.86248 9.34803 8.78394 9.53609 8.6446 9.67543C8.50526 9.81477 8.31719 9.89332 8.11999 9.89332H6.35415C6.15695 9.89332 5.96888 9.81477 5.82955 9.67544C5.69021 9.5361 5.61166 9.34803 5.61166 9.15083V8.59672C5.31529 8.40911 5.05946 8.16422 4.86193 7.8731C4.75154 7.7104 4.71462 7.66983 4.65124 7.49372C4.63032 7.44476 4.61261 7.39646 4.59977 7.3507C4.45109 6.93355 4.42671 6.46778 4.75088 6.12445C4.90066 5.96583 5.10156 5.86406 5.31218 5.81055C5.31401 5.675 5.32046 5.549 5.33134 5.43907C5.36174 5.13182 5.5159 4.87498 5.73482 4.66415C6.02283 4.38681 6.41394 4.23352 6.80182 4.1611C7.19612 4.08749 7.62107 4.09011 8.01579 4.15816C8.40224 4.22479 8.87129 4.3678 9.14946 4.66144C9.1591 4.66945 9.16821 4.67798 9.17676 4.68695C9.44437 4.96169 9.49763 5.83943 9.50464 6.18964C9.51904 6.90913 9.40376 7.74231 9.00494 8.35477C8.96115 8.42201 8.91369 8.48685 8.86248 8.54863V8.54863ZM4.82217 7.4765L4.8804 7.58341C4.91693 7.65049 4.95695 7.7163 4.99985 7.77952C5.18422 8.05126 5.42352 8.28036 5.70081 8.45589L5.77833 8.50497V9.15082C5.77833 9.30379 5.8393 9.44948 5.9474 9.55758C6.05549 9.66567 6.20119 9.72665 6.35416 9.72665H8.12C8.27296 9.72665 8.41866 9.66567 8.52675 9.55758C8.63485 9.44948 8.69582 9.30379 8.69582 9.15082V8.48853L8.73417 8.44227C8.7813 8.3854 8.82498 8.3257 8.86528 8.26382C9.245 7.68069 9.35169 6.87651 9.33801 6.19297C9.33174 5.87968 9.27611 5.03027 9.05674 4.80258C9.05032 4.79591 9.04232 4.78944 9.0355 4.78304C8.76746 4.53184 8.34404 4.38387 7.98748 4.32239C7.61127 4.25753 7.20806 4.2548 6.83242 4.32493C6.47749 4.39119 6.11418 4.53021 5.85043 4.7842C5.66028 4.96732 5.52359 5.18867 5.49719 5.45547C5.48547 5.57395 5.48044 5.69378 5.47883 5.8128L5.4771 5.9406L5.35322 5.97207C5.17415 6.01758 5.00008 6.1033 4.87207 6.23887C4.59365 6.53373 4.64548 6.94454 4.7586 7.30018C4.77327 7.34629 4.79166 7.3917 4.80806 7.43727L4.82217 7.47649L4.82217 7.4765Z" fill="black"/>
<path fill-rule="evenodd" clip-rule="evenodd" d="M6.46247 5.31638C6.46457 5.31441 7.18585 4.61909 8.28044 5.30638C8.3202 5.33142 8.33214 5.38396 8.3071 5.42372C8.28207 5.46348 8.22953 5.47541 8.18977 5.45038C7.20788 4.83384 6.58096 5.43866 6.57913 5.44038C6.5449 5.4726 6.49101 5.47095 6.4588 5.43672C6.42659 5.40248 6.42823 5.3486 6.46247 5.31638H6.46247ZM5.663 5.47189C5.65045 6.03331 5.68234 6.96517 5.85068 7.39933C5.86761 7.44314 5.84583 7.49239 5.80201 7.50933C5.7582 7.52627 5.70896 7.50448 5.69202 7.46067C5.56273 7.12723 5.51545 6.55828 5.49911 6.11217C5.25365 6.15065 4.58996 6.33933 4.91568 7.24429L4.91601 7.24417C4.91731 7.2478 4.91835 7.25146 4.91915 7.25513C4.94203 7.32655 5.16178 7.95993 5.88162 8.37021H8.54751H8.57658C8.63075 8.30839 8.68032 8.24237 8.72557 8.17288C9.08104 7.62698 9.18455 6.85647 9.17134 6.19631C9.15829 5.54438 9.03871 5.01194 8.93672 4.91834C8.93599 4.91767 8.93681 4.91811 8.93634 4.9178L8.93609 4.91796C8.92887 4.91326 8.92261 4.90764 8.91733 4.90137C8.7233 4.70291 8.36775 4.55711 7.95912 4.48666C7.60781 4.42609 7.22008 4.42211 6.86296 4.48878C6.51113 4.55447 6.19006 4.68851 5.966 4.90427C5.81231 5.05227 5.70399 5.23995 5.66301 5.4719L5.663 5.47189Z" fill="black"/>
<path fill-rule="evenodd" clip-rule="evenodd" d="M6.35411 9.55999H8.11995C8.23238 9.55999 8.33466 9.51393 8.40886 9.43973C8.48306 9.36553 8.52912 9.26326 8.52912 9.15083V8.54086H5.94495V9.15083C5.94495 9.26326 5.99101 9.36553 6.0652 9.43973C6.1394 9.51393 6.24168 9.55999 6.35411 9.55999H6.35411Z" fill="black"/>
</svg>
